<svg width="31" height="38" viewBox="0 0 31 38" fill="none" xmlns="http://www.w3.org/2000/svg">
<mask id="mask0_1746_16439" style="mask-type:luminance" maskUnits="userSpaceOnUse" x="0" y="0" width="31" height="32">
<path d="M0 0H31V31.5835H0V0Z" fill="white"/>
</mask>
<g mask="url(#mask0_1746_16439)">
<path fill-rule="evenodd" clip-rule="evenodd" d="M19.7625 27.9556C25.7903 26.7609 31 21.1743 31 14.2132C31 6.39556 25.1875 0 18.0833 0H6.42445C3.95687 0 2.66118 2.92829 4.32075 4.75444C4.8595 5.34727 5.62338 5.68527 6.42445 5.68527H18.0833C22.3458 5.68527 25.832 9.52171 25.832 14.2132C25.832 18.9031 22.3458 22.7411 18.0833 22.7411H18.0427C16.6122 22.7411 15.427 23.8509 15.3332 25.2783C15.2197 27.0053 16.7291 28.3963 18.4411 28.1424L19.8917 27.9272C19.7908 27.9508 19.8917 27.9292 19.7625 27.9556Z" fill="#7E5AFA"/>
</g>
<mask id="mask1_1746_16439" style="mask-type:luminance" maskUnits="userSpaceOnUse" x="5" y="11" width="16" height="27">
<path d="M5.05664 11.1797H20.9011V38.0023H5.05664V11.1797Z" fill="white"/>
</mask>
<g mask="url(#mask1_1746_16439)">
<path fill-rule="evenodd" clip-rule="evenodd" d="M10.3307 28.4308C10.3307 25.3997 10.3307 22.3696 10.3307 19.3389C10.3307 18.0805 11.3509 17.0603 12.6094 17.0603H18.0794C19.5016 17.0603 20.6641 15.7815 20.6641 14.2176C20.6641 12.6538 19.5016 11.375 18.0794 11.375H7.44271C6.18425 11.375 5.16406 12.3952 5.16406 13.6536C5.16406 18.5794 5.16406 23.5051 5.16406 28.4308V33.8435C5.16406 35.6408 7.14766 36.7306 8.66468 35.7668L9.27406 35.3796C9.93212 34.9615 10.3307 34.236 10.3307 33.4563V28.4308Z" fill="#009DDE"/>
</g>
</svg>
